# xmcd CD database file
#
# Track frame offsets:
#	150
#	27404
#	43109
#	57167
#	79580
#	92526
#	113839
#	127187
#	150695
#	166463
#	181433
#	205657
#	220475
#	240314
#	258133
#	278604
#	286782
#	298748
#
# Disc length: 4339 seconds
#
# Revision: 0
# Processed by: cddbd v1.5.2PL0 Copyright (c) Steve Scherf et al.
# Submitted via: CDex 1.51
#
DISCID=fd10f112
DTITLE=Various Artist - Best New Age [CD1)
DYEAR=2007
DGENRE=New Age
TTITLE0=Cristofori's Dream
TTITLE1=Walk Away Renee
TTITLE2=First Spring Day
TTITLE3=Morning Mist
TTITLE4=Big My Secret
TTITLE5=Deep Blue
TTITLE6=After The Rain
TTITLE7=Sunrise
TTITLE8=Blue Nocturne
TTITLE9=L'absente
TTITLE10=Gentle Earth And Sky
TTITLE11=Through Her Eye
TTITLE12=The Shape Of Her Face
TTITLE13=Turas Go Tir Na Nog
TTITLE14=That's All It Was
TTITLE15=The Musical Snuffbox
TTITLE16=Circus
TTITLE17=Girl From Barcelona
EXTD=YEAR: 2007
EXTT0=
EXTT1=
EXTT2=
EXTT3=
EXTT4=
EXTT5=
EXTT6=
EXTT7=
EXTT8=
EXTT9=
EXTT10=
EXTT11=
EXTT12=
EXTT13=
EXTT14=
EXTT15=
EXTT16=
EXTT17=
PLAYORDER=
